# xmcd
#
# Track frame offsets: 
#        183
#        30558
#        63033
#        87933
#        113828
#        139733
#        161858
#        186208
#        210233
#        240108
#
# Disc length: 3598 seconds
#
# Revision: 1
# Processed by: cddbd v1.5.1PL2 Copyright (c) Steve Scherf et al.
# Submitted via: ExactAudioCopy v0.95b4
#
DISCID=770e0c0a
DTITLE=Black Note - L.A. Underground
DYEAR=1993
DGENRE=Jazz
TTITLE0=Elizebeth Brown
TTITLE1=Song Of The Nile - James Mahone
TTITLE2=5Th Street - Mark Shelby
TTITLE3=Teh Warrior
TTITLE4=Modern Rome
TTITLE5=Blue J.
TTITLE6=The Final Call
TTITLE7=WEJIII
TTITLE8=All Thing You Are
TTITLE9=The Ancient Rome Suite
EXTD=YEAR: 1993
EXTT0=
EXTT1=
EXTT2=
EXTT3=
EXTT4=
EXTT5=
EXTT6=
EXTT7=
EXTT8=
EXTT9=
PLAYORDER=
